<?xml version="1.0" encoding="UTF-8" standalone="no"?>
<svg width="112px" height="35px" viewBox="0 0 112 35" version="1.1" xmlns="http://www.w3.org/2000/svg" xmlns:xlink="http://www.w3.org/1999/xlink">
    <!-- Generator: Sketch 39.1 (31720) - http://www.bohemiancoding.com/sketch -->
    <title>pixelon</title>
    <desc>Created with Sketch.</desc>
    <defs></defs>
    <g id="Page-1" stroke="none" stroke-width="1" fill="none" fill-rule="evenodd">
        <g id="pixelon-v0.1" transform="translate(-584.000000, -45.000000)" fill="#FFFFFF">
            <path d="M595.496,64.76 L590.664,64.76 L590.664,57.144 L595.496,57.144 L595.496,64.76 Z M601.736,68.216 L601.736,53.688 L598.984,53.688 L598.984,50.936 L587.208,50.936 L587.208,53.688 L584.424,53.688 L584.424,79.288 L590.664,79.288 L590.664,71 L598.984,71 L598.984,68.216 L601.736,68.216 Z M610.056,71 L610.056,50.936 L603.816,50.936 L603.816,71 L610.056,71 Z M610.056,48.856 L610.056,45.4 L603.816,45.4 L603.816,48.856 L610.056,48.856 Z M629.448,71 L629.448,64.76 L626.696,64.76 L626.696,62.008 L623.912,62.008 L623.912,59.928 L626.696,59.928 L626.696,57.176 L629.448,57.176 L629.448,50.936 L623.208,50.936 L623.208,56.472 L618.376,56.472 L618.376,50.936 L612.136,50.936 L612.136,57.176 L614.92,57.176 L614.92,59.928 L617.672,59.928 L617.672,62.008 L614.92,62.008 L614.92,64.76 L612.136,64.76 L612.136,71 L618.376,71 L618.376,65.464 L623.208,65.464 L623.208,71 L629.448,71 Z M642.6,59.224 L637.768,59.224 L637.768,57.144 L642.6,57.176 L642.6,59.224 Z M648.84,71 L648.84,64.76 L637.768,64.76 L637.768,62.68 L648.84,62.68 L648.84,53.688 L646.088,53.688 L646.088,50.936 L634.312,50.936 L634.312,53.688 L631.528,53.688 L631.528,68.216 L634.312,68.216 L634.312,71 L648.84,71 Z M657.16,71 L657.16,45.4 L650.92,45.4 L650.92,71 L657.16,71 Z M670.312,64.76 L665.48,64.76 L665.48,57.144 L670.312,57.144 L670.312,64.76 Z M676.552,68.216 L676.552,53.688 L673.8,53.688 L673.8,50.936 L662.024,50.936 L662.024,53.688 L659.24,53.688 L659.24,68.216 L662.024,68.216 L662.024,71 L673.8,71 L673.8,68.216 L676.552,68.216 Z M695.944,71 L695.944,53.688 L693.192,53.688 L693.192,50.936 L684.168,50.936 L684.168,53.688 L682.12,53.688 L682.12,50.936 L678.632,50.936 L678.632,71 L684.872,71 L684.872,57.144 L689.704,57.144 L689.704,71 L695.944,71 Z" id="pixelon"></path>
        </g>
    </g>
</svg>